<?xml version="1.0" encoding="UTF-8"?>
<svg xmlns="http://www.w3.org/2000/svg" xmlns:xlink="http://www.w3.org/1999/xlink" width="193pt" height="193pt" viewBox="0 0 193 193" version="1.1">
<g id="surface1">
<path style=" stroke:none;fill-rule:evenodd;fill:rgb(27.099609%,62.69989%,82.699585%);fill-opacity:1;" d="M 0 0.242188 L 192.757813 0.242188 L 192.757813 193 L 0 193 L 0 0.242188 "/>
<path style=" stroke:none;fill-rule:evenodd;fill:rgb(100%,100%,100%);fill-opacity:1;" d="M 31.429688 106.644531 C 31.007813 106.785156 30.585938 106.855469 30.164063 106.925781 C 29.671875 106.996094 29.179688 106.996094 28.617188 106.996094 C 25.242188 106.996094 22.5 106.011719 20.390625 104.113281 C 18.28125 102.214844 17.292969 99.75 17.292969 96.726563 C 17.292969 93.773438 18.347656 91.242188 20.53125 89.203125 C 22.710938 87.234375 25.453125 86.25 28.828125 86.25 C 29.179688 86.25 29.601563 86.25 30.023438 86.320313 C 30.445313 86.320313 30.9375 86.390625 31.359375 86.53125 L 31.640625 92.507813 C 31.148438 92.296875 30.65625 92.15625 30.164063 92.015625 C 29.671875 91.945313 29.179688 91.875 28.757813 91.875 C 27.070313 91.875 25.664063 92.296875 24.609375 93.210938 C 23.554688 94.125 23.0625 95.25 23.0625 96.585938 C 23.0625 97.921875 23.554688 99.046875 24.609375 99.960938 C 25.664063 100.878906 27 101.367188 28.546875 101.367188 C 29.109375 101.367188 29.671875 101.296875 30.234375 101.15625 C 30.796875 101.019531 31.359375 100.804688 31.851563 100.523438 L 31.429688 106.644531 "/>
<path style=" stroke:none;fill-rule:evenodd;fill:rgb(100%,100%,100%);fill-opacity:1;" d="M 40.644531 96.796875 C 39.941406 96.796875 39.308594 97.078125 38.746094 97.570313 C 38.253906 98.0625 37.972656 98.765625 37.972656 99.46875 C 37.972656 100.242188 38.253906 100.878906 38.746094 101.441406 C 39.308594 101.929688 39.941406 102.214844 40.644531 102.214844 C 41.417969 102.214844 42.050781 101.929688 42.542969 101.367188 C 43.105469 100.878906 43.316406 100.242188 43.316406 99.46875 C 43.316406 98.765625 43.105469 98.132813 42.542969 97.570313 C 42.050781 97.078125 41.417969 96.796875 40.644531 96.796875 Z M 40.644531 91.945313 C 42.894531 91.945313 44.722656 92.71875 46.269531 94.195313 C 47.816406 95.671875 48.589844 97.429688 48.589844 99.46875 C 48.589844 101.582031 47.816406 103.410156 46.269531 104.886719 C 44.792969 106.363281 42.894531 107.066406 40.644531 107.066406 C 38.464844 107.066406 36.566406 106.363281 35.019531 104.886719 C 33.46875 103.410156 32.695313 101.582031 32.695313 99.46875 C 32.695313 97.429688 33.46875 95.671875 35.019531 94.195313 C 36.566406 92.71875 38.464844 91.945313 40.644531 91.945313 "/>
<path style=" stroke:none;fill-rule:evenodd;fill:rgb(100%,100%,100%);fill-opacity:1;" d="M 49.503906 106.644531 L 49.503906 92.226563 L 54.640625 92.226563 L 54.640625 93.632813 C 55.132813 93.070313 55.695313 92.648438 56.328125 92.4375 C 57.03125 92.15625 57.734375 92.015625 58.578125 92.015625 C 60.125 92.015625 61.25 92.4375 62.023438 93.28125 C 62.796875 94.125 63.21875 95.320313 63.21875 96.867188 L 63.21875 106.644531 L 57.945313 106.644531 L 57.945313 98.976563 C 57.945313 98.132813 57.875 97.570313 57.59375 97.21875 C 57.382813 96.9375 57.03125 96.726563 56.46875 96.726563 C 55.90625 96.726563 55.484375 96.9375 55.203125 97.289063 C 54.847656 97.710938 54.710938 98.273438 54.710938 98.976563 L 54.710938 106.644531 L 49.503906 106.644531 "/>
<path style=" stroke:none;fill-rule:evenodd;fill:rgb(100%,100%,100%);fill-opacity:1;" d="M 64.695313 106.644531 L 64.695313 92.226563 L 69.898438 92.226563 L 69.898438 93.632813 C 70.320313 93.070313 70.953125 92.648438 71.589844 92.4375 C 72.21875 92.15625 72.992188 92.015625 73.839844 92.015625 C 75.316406 92.015625 76.441406 92.4375 77.285156 93.28125 C 78.058594 94.125 78.410156 95.320313 78.410156 96.867188 L 78.410156 106.644531 L 73.207031 106.644531 L 73.207031 98.976563 C 73.207031 98.132813 73.066406 97.570313 72.851563 97.21875 C 72.640625 96.9375 72.21875 96.726563 71.65625 96.726563 C 71.09375 96.726563 70.671875 96.9375 70.390625 97.289063 C 70.109375 97.710938 69.96875 98.273438 69.96875 98.976563 L 69.96875 106.644531 L 64.695313 106.644531 "/>
<path style=" stroke:none;fill-rule:evenodd;fill:rgb(100%,100%,100%);fill-opacity:1;" d="M 84.175781 99.46875 L 88.957031 96.304688 C 88.746094 96.09375 88.464844 95.953125 88.253906 95.882813 C 87.972656 95.8125 87.621094 95.742188 87.269531 95.742188 C 86.425781 95.742188 85.722656 96.023438 85.089844 96.65625 C 84.457031 97.21875 84.105469 97.921875 84.105469 98.695313 C 84.105469 98.835938 84.105469 98.976563 84.105469 99.046875 C 84.175781 99.1875 84.175781 99.328125 84.175781 99.46875 Z M 93.671875 105.238281 C 92.6875 105.800781 91.773438 106.222656 90.71875 106.503906 C 89.660156 106.785156 88.605469 106.925781 87.480469 106.925781 C 85.089844 106.925781 83.121094 106.222656 81.644531 104.816406 C 80.238281 103.480469 79.464844 101.652344 79.464844 99.46875 C 79.464844 97.359375 80.238281 95.601563 81.785156 94.125 C 83.332031 92.578125 85.230469 91.875 87.480469 91.875 C 89.167969 91.875 90.578125 92.296875 91.84375 93.210938 C 93.109375 94.054688 93.953125 95.320313 94.515625 96.796875 L 86.214844 102.351563 C 86.496094 102.421875 86.777344 102.492188 87.058594 102.566406 C 87.339844 102.636719 87.621094 102.636719 87.972656 102.636719 C 88.816406 102.636719 89.730469 102.421875 90.578125 102.074219 C 91.488281 101.71875 92.40625 101.15625 93.25 100.453125 L 93.671875 105.238281 "/>
<path style=" stroke:none;fill-rule:evenodd;fill:rgb(100%,100%,100%);fill-opacity:1;" d="M 105.695313 106.503906 C 105.273438 106.644531 104.78125 106.714844 104.289063 106.785156 C 103.796875 106.855469 103.375 106.855469 102.882813 106.855469 C 100.5625 106.855469 98.734375 106.152344 97.328125 104.746094 C 95.921875 103.339844 95.21875 101.511719 95.21875 99.257813 C 95.21875 97.078125 95.992188 95.390625 97.398438 94.054688 C 98.875 92.71875 100.84375 92.085938 103.234375 92.085938 C 103.65625 92.085938 104.078125 92.085938 104.5 92.15625 C 104.921875 92.15625 105.34375 92.296875 105.695313 92.367188 L 105.695313 97.078125 C 105.203125 96.9375 104.851563 96.867188 104.5 96.796875 C 104.148438 96.726563 103.796875 96.726563 103.585938 96.726563 C 102.53125 96.726563 101.757813 96.9375 101.195313 97.429688 C 100.632813 97.921875 100.351563 98.554688 100.351563 99.398438 C 100.351563 100.171875 100.632813 100.804688 101.265625 101.296875 C 101.828125 101.789063 102.601563 102.074219 103.585938 102.074219 C 103.867188 102.074219 104.148438 102.074219 104.5 102.003906 C 104.851563 102.003906 105.273438 101.929688 105.695313 101.859375 L 105.695313 106.503906 "/>
<path style=" stroke:none;fill-rule:evenodd;fill:rgb(100%,100%,100%);fill-opacity:1;" d="M 114.628906 106.644531 C 114.207031 106.714844 113.855469 106.714844 113.503906 106.785156 C 113.152344 106.785156 112.800781 106.785156 112.449219 106.785156 C 110.6875 106.785156 109.492188 106.503906 108.859375 105.800781 C 108.226563 105.097656 107.875 103.691406 107.875 101.511719 L 107.875 96.09375 L 106.890625 96.09375 L 106.890625 91.59375 L 107.875 91.59375 L 107.875 90.046875 L 113.152344 87.164063 L 113.152344 91.59375 L 115.121094 91.59375 L 115.121094 96.09375 L 113.152344 96.09375 L 113.152344 99.46875 C 113.152344 100.242188 113.222656 100.804688 113.433594 101.089844 C 113.644531 101.367188 114.066406 101.511719 114.628906 101.511719 C 114.839844 101.511719 115.050781 101.511719 115.191406 101.441406 C 115.332031 101.441406 115.472656 101.441406 115.613281 101.441406 L 114.628906 106.644531 "/>
<path style=" stroke:none;fill-rule:evenodd;fill:rgb(100%,100%,100%);fill-opacity:1;" d="M 122.996094 106.644531 L 122.996094 86.601563 L 134.742188 86.601563 L 135.585938 91.945313 L 128.554688 91.945313 L 128.554688 93.984375 L 132.984375 93.984375 L 132.984375 99.257813 L 128.554688 99.257813 L 128.554688 106.644531 L 122.996094 106.644531 "/>
<path style=" stroke:none;fill-rule:evenodd;fill:rgb(100%,100%,100%);fill-opacity:1;" d="M 142.335938 96.585938 C 141.632813 96.585938 141 96.796875 140.4375 97.289063 C 139.945313 97.851563 139.664063 98.484375 139.664063 99.257813 C 139.664063 100.03125 139.875 100.664063 140.4375 101.15625 C 140.929688 101.71875 141.5625 101.929688 142.335938 101.929688 C 143.109375 101.929688 143.742188 101.71875 144.234375 101.15625 C 144.796875 100.664063 145.007813 100.03125 145.007813 99.257813 C 145.007813 98.484375 144.796875 97.851563 144.234375 97.359375 C 143.742188 96.796875 143.109375 96.585938 142.335938 96.585938 Z M 142.335938 91.664063 C 144.589844 91.664063 146.414063 92.4375 148.035156 93.914063 C 149.582031 95.460938 150.355469 97.148438 150.355469 99.257813 C 150.355469 101.367188 149.582031 103.199219 148.035156 104.675781 C 146.484375 106.152344 144.589844 106.925781 142.335938 106.925781 C 140.15625 106.925781 138.257813 106.152344 136.640625 104.675781 C 135.09375 103.199219 134.320313 101.367188 134.320313 99.257813 C 134.320313 97.148438 135.09375 95.390625 136.710938 93.914063 C 138.257813 92.4375 140.15625 91.664063 142.335938 91.664063 "/>
<path style=" stroke:none;fill-rule:evenodd;fill:rgb(100%,100%,100%);fill-opacity:1;" d="M 165.335938 92.226563 L 165.335938 106.644531 L 160.058594 106.644531 L 160.058594 105.238281 C 159.566406 105.800781 159.003906 106.222656 158.300781 106.433594 C 157.667969 106.714844 156.894531 106.855469 156.050781 106.855469 C 154.503906 106.855469 153.378906 106.433594 152.535156 105.589844 C 151.761719 104.816406 151.339844 103.550781 151.339844 102.003906 L 151.339844 92.226563 L 156.683594 92.226563 L 156.683594 99.824219 C 156.683594 100.664063 156.824219 101.226563 157.035156 101.582031 C 157.316406 101.859375 157.667969 102.074219 158.230469 102.074219 C 158.792969 102.074219 159.285156 101.859375 159.566406 101.511719 C 159.847656 101.15625 159.988281 100.59375 159.988281 99.824219 L 159.988281 92.226563 L 165.335938 92.226563 "/>
<path style=" stroke:none;fill-rule:evenodd;fill:rgb(100%,100%,100%);fill-opacity:1;" d="M 166.949219 106.644531 L 166.949219 92.226563 L 172.015625 92.226563 L 172.015625 93.703125 C 172.367188 93.210938 172.859375 92.789063 173.351563 92.507813 C 173.914063 92.296875 174.617188 92.085938 175.390625 92.085938 L 175.390625 97.007813 L 174.828125 97.007813 C 173.914063 97.007813 173.210938 97.21875 172.71875 97.710938 C 172.296875 98.203125 172.015625 98.835938 172.015625 99.75 L 172.015625 106.644531 L 166.949219 106.644531 "/>
</g>
</svg>
